<svg xmlns="http://www.w3.org/2000/svg" xmlns:xlink="http://www.w3.org/1999/xlink" xmlns:lucid="lucid" width="1282.98" height="710.5"><g transform="translate(-118.5 -379.5)" lucid:page-tab-id="UOGe8uRBihoh"><path d="M0 0h1760v1360H0z" fill="#fff"/><path d="M497 1031.92h15.8v11.73H497v-11.73zM557.2 900H620v153.34h-62.8V900z" fill="#4397ff"/><path d="M421 925.84h166.2v106.25H421V925.83z" fill="#4397ff"/><path d="M428.6 932.3h151.6v95.03H428.6V932.3z" fill="#fff" fill-opacity=".98"/><path d="M427.6 1044.5H579l-7.4 25.33H420l7.6-25.33z" fill="#4397ff"/><path d="M426.6 1043.65h155l13 26.35h-155l-13-26.35z" fill="#4397ff"/><path d="M479.2 1063.2h55.2v5.27h-55.2v-5.27zM448.8 1047.73h4.2v3.4h-4.2v-3.4zM456 1047.9h4.2v3.4H456v-3.4zM465.4 1054.02h4v3.4h-4v-3.4zM463.8 1047.56h4.2v3.4h-4.2v-3.4zM470.8 1047.73h4.2v3.4h-4.2v-3.4zM477.8 1047.56h4v3.4h-4v-3.4zM520.4 1048.07h4.2v3.4h-4.2v-3.4zM526.8 1048.07h4v3.4h-4v-3.4zM532.6 1048.07h4.2v3.4h-4.2v-3.4zM539.6 1048.07h4.2v3.4h-4.2v-3.4zM546.2 1048.07h4v3.4h-4v-3.4zM538.4 1053.68h4.2v3.4h-4.2v-3.4zM553.6 1048.07h4.2v3.4h-4.2v-3.4zM473 1053.85h4.2v3.4H473v-3.4zM481 1053.85h4v3.4h-4v-3.4zM532 1053.5h3.6v3.4H532v-3.4zM525 1053.5h4v3.4h-4v-3.4zM485.4 1047.73h4v3.4h-4v-3.4zM493 1047.9h4.2v3.4H493v-3.4zM500.2 1047.73h4.2v3.4h-4.2v-3.4zM508.2 1047.73h4v3.4h-4v-3.4zM514.6 1047.9h4.2v3.4h-4.2v-3.4zM488 1053.68h4v3.4h-4v-3.4zM495.6 1053.68h4.2v3.4h-4.2v-3.4zM503 1053.85h4v3.4h-4v-3.4zM510 1053.85h4.2v3.4H510v-3.4zM517.4 1053.5h4v3.4h-4v-3.4z" fill="#fff"/><path d="M420.2 1069.83l174.4-.5-12.4-25.68-154.4.17-7.6 26z" fill="none"/><path d="M601.6 908h11.2c1.2 0 1.2 0 1.2 1.18 0 1.2 0 1.2-1.2 1.2h-11.2c-1.2 0-1.2 0-1.2-1.2s0-1.2 1.2-1.2zM601.6 913.6H613c1 0 1 0 1 1.02s0 1.02-1 1.02h-11.4c-1.2 0-1.2 0-1.2-1.02s0-1.02 1.2-1.02zM557.4 924.14h30.2v1.36h-30.2v-1.36zM587.6 924.14h1.4v108.3h-1.4v-108.3z" fill="#fff"/><path d="M557.2 1032.26h31.6v1.53h-31.6v-1.54zM557.4 1040.93h24.2c1.2 0 1.2 0 1.2 1.2 0 1.35 0 1.35-1.2 1.35h-24.2c-1.2 0-1.2 0-1.2-1.36 0-1.2 0-1.2 1.2-1.2z" fill="#fff"/><path d="M582.6 1041.27l6.8 11.73-2 1.2-6.6-11.9 1.8-1.03zM496.2 1031.92h17v1.7h-17v-1.7zM496.8 1041.78H513v1.87h-16.2v-1.87z" fill="#fff"/><path d="M1083.22 420h13.56c12.9 0 23.28 1.98 23.28 4.5v81c0 2.52-10.38 4.5-23.28 4.5h-13.56c-12.84 0-23.22-1.98-23.22-4.5v-81c0-2.52 10.38-4.5 23.22-4.5z" fill="#4397ff"/><path d="M1064.2 427.2h51.66v73.53h-51.66V427.2zM1081.36 423.06h16.74c.42 0 .78.27.78.54s-.36.54-.78.54h-16.74c-.42 0-.78-.27-.78-.54s.36-.54.78-.54zM1083.52 505.68c0 .63-.48 1.08-1.14 1.08-.6 0-1.14-.45-1.14-1.08 0-.54.54-1.08 1.14-1.08.66 0 1.14.54 1.14 1.08zM1091.8 505.68c0 .63-.48 1.08-1.14 1.08-.6 0-1.08-.45-1.08-1.08 0-.54.48-1.08 1.08-1.08.66 0 1.14.54 1.14 1.08zM1099.66 505.68c0 .63-.54 1.08-1.14 1.08-.66 0-1.14-.45-1.14-1.08 0-.54.48-1.08 1.14-1.08.6 0 1.14.54 1.14 1.08z" fill="#fff"/><path d="M1065.64 428.46h48.72v70.92h-48.72v-70.92z" fill="gray"/><path d="M485.2 524.55h69.2v121.3h-69.2v-121.3z" fill="#29aae1"/><path d="M511.6 608.8h35.2c1.12 0 1.12 0 1.12 1.16 0 1.04 0 1.04-1.12 1.04h-35.2c-1.12 0-1.12 0-1.12-1.04 0-1.17 0-1.17 1.12-1.17zM511.68 614.9h35.12c1.52 0 1.52 0 1.52 1.56v.4c0 1.55 0 1.55-1.52 1.55h-35.12c-1.52 0-1.52 0-1.52-1.55v-.4c0-1.55 0-1.55 1.52-1.55zM511.84 622.57h35.12c1.52 0 1.52 0 1.52 1.56v.4c0 1.55 0 1.55-1.52 1.55h-35.12c-1.52 0-1.52 0-1.52-1.56v-.4c0-1.55 0-1.55 1.52-1.55zM543.92 583.44c0 3.12-2.56 5.72-5.76 5.72-3.12 0-5.68-2.6-5.68-5.72 0-3.12 2.56-5.72 5.68-5.72 3.2 0 5.76 2.6 5.76 5.72z" fill="#fff"/><path d="M541.6 583.44c0 1.95-1.6 3.5-3.52 3.5s-3.52-1.55-3.52-3.5 1.6-3.5 3.52-3.5 3.52 1.55 3.52 3.5z" fill="#54bbe7"/><path d="M486.48 520h27.84v1.95h-27.84V520zM518.16 520H546v2.08h-27.84V520zM549.76 520.13h9.92v1.95h-9.92v-1.95z" fill="gray"/><path d="M557.52 521.95h2.16v12.74h-2.16v-12.75zM557.6 538.07h2.16v26h-2.16v-26zM557.6 568.5h2.24v26h-2.24v-26zM557.68 598.13h2.24v26h-2.24v-26zM557.68 628.42h2.24V650h-2.24v-21.58z" fill="gray"/><path d="M549.76 648.05h9.92V650h-9.92v-1.95zM517.44 648.05h27.84V650h-27.84v-1.95zM481.84 647.92h30.56V650h-30.56v-2.08zM480.08 520h2.24v26.13h-2.24V520zM480 550.3h2.24v26.12H480V550.3zM480 580.32h2.24v26H480v-26zM480 609.83h2.24v26.13H480v-26.13z" fill="gray"/><path d="M480.16 640h2.24v10h-2.24v-10z" fill="gray"/><path d="M140 536.4v87.23c0 9 20.38 16.37 45.5 16.37V536.4H140z" stroke="#000" stroke-opacity="0" stroke-width="3" fill="#0072c6"/><path d="M184.88 640h.64c25.1 0 45.48-7.36 45.48-16.37V536.4h-46.12V640z" stroke="#000" stroke-opacity="0" stroke-width="3" fill="#0072c6"/><path d="M184.88 640h.64c25.1 0 45.48-7.36 45.48-16.37V536.4h-46.12V640z" stroke="#000" stroke-opacity="0" stroke-width="3" fill="#fff" fill-opacity=".15"/><path d="M231 536.4c0 9.04-20.38 16.4-45.5 16.4s-45.5-7.36-45.5-16.4c0-9.06 20.38-16.4 45.5-16.4s45.5 7.34 45.5 16.4" stroke="#000" stroke-opacity="0" stroke-width="3" fill="#fff"/><path d="M221.7 535.45c0 5.97-16.22 10.82-36.2 10.82-19.98 0-36.2-4.85-36.2-10.82 0-5.97 16.22-10.82 36.2-10.82 19.98 0 36.2 4.85 36.2 10.82" stroke="#000" stroke-opacity="0" stroke-width="3" fill="#7fba00"/><path d="M214.1 542.06c4.78-1.83 7.6-4.1 7.6-6.6 0-5.98-16.22-10.83-36.2-10.83-19.98 0-36.2 4.85-36.2 10.83 0 2.5 2.83 4.77 7.6 6.6 6.6-2.56 16.94-4.2 28.6-4.2s22 1.64 28.6 4.2" stroke="#000" stroke-opacity="0" stroke-width="3" fill="#b8d432"/><path d="M171.06 596.93c0 2.72-1 4.82-3 6.3-1.93 1.48-4.7 2.24-8.14 2.24-3 0-5.43-.54-7.43-1.6v-6.4c2.28 1.96 4.78 2.94 7.56 2.94 1.36 0 2.36-.28 3.07-.8.72-.53 1.08-1.22 1.08-2.12 0-.87-.28-1.6-1-2.25-.7-.65-2.14-1.44-4.28-2.46-4.36-2.06-6.57-4.85-6.57-8.36 0-2.55.93-4.62 2.85-6.17 1.93-1.56 4.43-2.32 7.65-2.32 2.78 0 5.07.38 6.93 1.1v5.97c-1.93-1.34-4.15-2-6.57-2-1.28 0-2.2.26-3 .8-.7.48-1.07 1.24-1.07 2.1 0 .9.3 1.63.93 2.2.57.6 1.72 1.3 3.57 2.14 2.65 1.28 4.58 2.58 5.72 3.88 1.14 1.3 1.72 2.9 1.72 4.85zm30.87-6.44c0 3.32-.8 6.25-2.3 8.7-1.56 2.5-3.7 4.2-6.5 5.22l8.37 7.67h-8.43l-5.93-6.63c-2.57-.1-4.86-.76-6.93-2.02-2-1.24-3.63-2.97-4.7-5.14-1.15-2.16-1.72-4.6-1.72-7.26 0-2.93.64-5.57 1.86-7.9 1.2-2.3 2.86-4.12 5.07-5.35 2.22-1.27 4.73-1.9 7.5-1.9 2.66 0 5.08.63 7.16 1.82 2.07 1.23 3.7 2.93 4.85 5.18 1.16 2.2 1.73 4.74 1.73 7.6zm-6.8.32c0-2.9-.63-5.17-1.92-6.84-1.2-1.7-3-2.53-5.2-2.53-2.22 0-4 .83-5.36 2.53-1.36 1.7-2 3.94-2 6.73 0 2.8.64 5.04 1.93 6.7 1.36 1.67 3.07 2.5 5.28 2.5 2.22 0 4-.8 5.3-2.42 1.35-1.63 2-3.84 2-6.66zm28.66 14.14h-17.1l.02-28.58h6.43v23.38h10.64z" stroke="#000" stroke-opacity="0" stroke-width="3" fill="#fff"/><path d="M1380 433.96h-11.64v8.88H1380v5.52h-11.64v8.88H1380v5.52h-11.64v8.88H1380v5.52h-11.64v8.88H1380v5.52h-11.64v8.16c0 4.8-3.84 8.64-8.64 8.64h-8.16V520h-5.52v-11.64h-8.88V520h-5.52v-11.64h-8.88V520h-5.52v-11.64h-8.88V520h-5.52v-11.64h-8.88V520h-5.52v-11.64h-8.16c-4.8 0-8.64-3.84-8.64-8.64v-8.16H1260v-5.52h11.64v-8.88H1260v-5.52h11.64v-8.88H1260v-5.52h11.64v-8.88H1260v-5.52h11.64v-8.88H1260v-5.52h11.64v-8.16c0-4.68 3.84-8.52 8.64-8.52h8.16V400h5.52v11.76h8.88V400h5.52v11.76h8.88V400h5.52v11.76h8.88V400h5.52v11.76h8.88V400h5.52v11.76h8.16c4.8 0 8.64 3.84 8.64 8.52v8.16H1380zm-17.16 65.76v-79.44c0-1.68-1.32-3.12-3.12-3.12h-79.44c-1.8 0-3.12 1.44-3.12 3.12v79.44c0 1.8 1.32 3.12 3.12 3.12h79.44c1.8 0 3.12-1.32 3.12-3.12zm-17.04-58.2l5.88 12.84c6.12 1.68 9.48 6.48 9.48 13.44v5.16c0 2.28-1.8 4.2-4.08 4.2h-3.96c-1.32 4.32-5.28 7.68-10.08 7.68-4.68 0-8.76-3.36-9.96-7.68h-22.32c-1.2 4.32-5.16 7.68-9.96 7.68-4.8 0-8.76-3.36-9.96-7.68h-3.12c-1.56 0-3-.96-3.72-2.4h-4.8v-5.52h4.44v-5.52c0-3 2.28-5.64 5.28-6.12l16.32-5.04 3.36-10.56c.84-2.28 3-3.96 5.52-3.96h25.8c2.4 0 4.68 1.32 5.88 3.48zm9.84 30.12v-3.84c0-4.92-1.92-7.56-6.48-8.4-.84-.24-1.56-.72-1.92-1.56l-6.36-13.8c-.12-.24-.48-.48-.96-.48h-25.8c-.12 0-.24 0-.24.24l-3.48 10.32c-.36 1.56-1.44 2.88-3 3.36l-17.16 5.4c-.12.12-.36.12-.6.12s-.48.36-.48.72v7.92h1.68c1.2-4.32 5.16-7.68 9.96-7.68 4.8 0 8.76 3.36 9.96 7.68h22.32c1.2-4.32 5.28-7.68 9.96-7.68 4.8 0 8.76 3.36 10.08 7.68zm-59.76 2.76c0 2.76 2.16 4.92 4.92 4.92s4.92-2.16 4.92-4.92-2.16-4.92-4.92-4.92-4.92 2.16-4.92 4.92zm42.24 0c0 2.76 2.28 4.92 4.92 4.92 2.76 0 4.92-2.16 4.92-4.92s-2.16-4.92-4.92-4.92c-2.64 0-4.92 2.16-4.92 4.92z" stroke="#000" stroke-opacity="0" fill="#3f8624"/><use xlink:href="#a" transform="matrix(1,0,0,1,1230,529) translate(29.574999999999996 14.4)"/><use xlink:href="#b" transform="matrix(1,0,0,1,1230,529) translate(89.475 14.4)"/><path d="M462.34 597.64l-2.72.6-7.63 1.3-12.5 1.64-21.2 1.86-34.67 1.6-44.77.23-38.37-1.34-24.42-1.87-14.34-1.7-8.66-1.4-5.5-1.13-3.65-.92-2.55-.74-1.84-.63-1.38-.53-1.04-.46-.82-.4-.65-.35-.22-.14m13.23-20.9l2.72-.6 7.63-1.3 12.5-1.64 21.2-1.86 34.67-1.6 44.77-.23 38.37 1.34 24.42 1.87 14.34 1.7 8.66 1.4 5.5 1.13 3.65.92 2.55.74 1.84.63 1.38.53 1.05.46.8.4.65.35.22.14" stroke="#333" fill="none"/><path d="M475.05 593.32l-9.9 11.28-4.8-14.2z" stroke="#333" fill="#333"/><path d="M235.7 592.87l-.52.8-.44-.27.5-.8z" stroke="#333" stroke-width=".05" fill="#333"/><path d="M235.95 576.68l9.9-11.28 4.8 14.2z" stroke="#333" fill="#333"/><path d="M476.25 576.6l-.5.8-.44-.27.52-.8z" stroke="#333" stroke-width=".05" fill="#333"/><use xlink:href="#c" transform="matrix(1,0,0,1,271.0209915497814,518.4863680366836) translate(28.05438271604973 14.222222222222399)"/><use xlink:href="#d" transform="matrix(1,0,0,1,271.0209915497814,518.4863680366836) translate(132.64697530864365 14.222222222222399)"/><use xlink:href="#e" transform="matrix(1,0,0,1,271.0209915497814,518.4863680366836) translate(0.0049999999999954525 35.555555555556)"/><use xlink:href="#f" transform="matrix(1,0,0,1,271.0209915497814,518.4863680366836) translate(112.4000617283965 35.555555555556)"/><use xlink:href="#g" transform="matrix(1,0,0,1,271.0209915497814,518.4863680366836) translate(142.96796296296478 35.555555555556)"/><path d="M574.34 584.7l15.68-.32 25.96-1.62 22.87-2.4 20.6-3.02 18.94-3.62 17.88-4.2 17.38-4.84 17.53-5.7 18.8-7 23.2-9.8 96.63-44.15 18.82-7 17.53-5.7 17.38-4.86 17.9-4.2 18.94-3.6 20.6-3.04 22.86-2.4 25.97-1.62 29.67-.6" stroke="#333" stroke-linejoin="round" fill="none"/><path d="M560.85 584.98l12.83-7.76.3 15z" stroke="#333" fill="#333"/><path d="M1060 465.48h-.5v-.96h.5z" stroke="#333" stroke-width=".05" fill="#333"/><use xlink:href="#h" transform="matrix(1,0,0,1,735.6572705613796,545.287073943656) translate(70.37537037037123 14.222222222222399)"/><use xlink:href="#i" transform="matrix(1,0,0,1,735.6572705613796,545.287073943656) translate(0.0049999999999954525 35.555555555556)"/><use xlink:href="#j" transform="matrix(1,0,0,1,735.6572705613796,545.287073943656) translate(33.58524691358066 35.555555555556)"/><use xlink:href="#k" transform="matrix(1,0,0,1,735.6572705613796,545.287073943656) translate(85.8815432098776 35.555555555556)"/><use xlink:href="#l" transform="matrix(1,0,0,1,735.6572705613796,545.287073943656) translate(146.9679629629648 35.555555555556)"/><use xlink:href="#m" transform="matrix(1,0,0,1,735.6572705613796,545.287073943656) translate(187.01734567901468 35.555555555556)"/><use xlink:href="#n" transform="matrix(1,0,0,1,735.6572705613796,545.287073943656) translate(203.807469135805 35.555555555556)"/><path d="M1134.55 465h136.6" stroke="#333" fill="none"/><path d="M1121.06 465l13-7.5v15z" stroke="#333" fill="#333"/><path d="M1271.64 465.48h-.5v-.96h.5z" stroke="#333" stroke-width=".05" fill="#333"/><g><use xlink:href="#o" transform="matrix(1,0,0,1,1146.5408379213113,418.3333333333328) translate(0.005000000000002558 14.222222222222399)"/><use xlink:href="#i" transform="matrix(1,0,0,1,1146.5408379213113,418.3333333333328) translate(8.84450617283963 35.555555555556)"/><use xlink:href="#g" transform="matrix(1,0,0,1,1146.5408379213113,418.3333333333328) translate(42.424753086420296 35.555555555556)"/></g><path d="M512.12 667.76l.4 1.96 1.36 7.96 1.7 13.56 2.05 24.32 1.8 42.27.1 55.27-1.7 44.1-2.06 25.7-1.75 14.3-1.38 8.34-1.08 5.2-.87 3.42-.72 2.37-.6 1.7-.48 1.26-.42.95-.37.75-.1.2m-20.6-13.32l-.42-1.96-1.35-7.96-1.7-13.55-2.05-24.32L480.1 818l-.1-55.26 1.7-44.1 2.04-25.7 1.75-14.3 1.37-8.34 1.1-5.2.85-3.42.7-2.37.6-1.7.5-1.25.42-.96.36-.76.12-.2" stroke="#333" fill="none"/><path d="M508.06 654.95l11.07 10.12-14.3 4.53z" stroke="#333" fill="#333"/><path d="M508.43 921.63l-.26.45-.82-.48.25-.44z" stroke="#333" stroke-width=".05" fill="#333"/><path d="M491.45 920.9l-11.07-10.13 14.3-4.53z" stroke="#333" fill="#333"/><path d="M492.17 654.24l-.26.44-.8-.47.25-.44z" stroke="#333" stroke-width=".05" fill="#333"/><g><use xlink:href="#p" transform="matrix(1,0,0,1,527.4462404994692,751.8783826797869) translate(2.2025308641975414 14.222222222222399)"/><use xlink:href="#f" transform="matrix(1,0,0,1,527.4462404994692,751.8783826797869) translate(104.81981481481613 14.222222222222399)"/><use xlink:href="#j" transform="matrix(1,0,0,1,527.4462404994692,751.8783826797869) translate(135.3877160493844 14.222222222222399)"/><use xlink:href="#q" transform="matrix(1,0,0,1,527.4462404994692,751.8783826797869) translate(187.68401234568137 14.222222222222399)"/><use xlink:href="#r" transform="matrix(1,0,0,1,527.4462404994692,751.8783826797869) translate(243.83216049383023 14.222222222222399)"/><use xlink:href="#s" transform="matrix(1,0,0,1,527.4462404994692,751.8783826797869) translate(0.0049999999999954525 35.555555555556)"/><use xlink:href="#t" transform="matrix(1,0,0,1,527.4462404994692,751.8783826797869) translate(4.943271604938329 35.555555555556)"/><use xlink:href="#q" transform="matrix(1,0,0,1,527.4462404994692,751.8783826797869) translate(110.42475308642115 35.555555555556)"/><use xlink:href="#l" transform="matrix(1,0,0,1,527.4462404994692,751.8783826797869) translate(166.57290123457 35.555555555556)"/><use xlink:href="#m" transform="matrix(1,0,0,1,527.4462404994692,751.8783826797869) translate(206.62228395061987 35.555555555556)"/><use xlink:href="#u" transform="matrix(1,0,0,1,527.4462404994692,751.8783826797869) translate(223.4124074074102 35.555555555556)"/></g><g><use xlink:href="#v" transform="matrix(1,0,0,1,373.34360454184616,750.3007493761635) translate(0.005000000000002558 14.222222222222223)"/><use xlink:href="#w" transform="matrix(1,0,0,1,373.34360454184616,750.3007493761635) translate(3.4864814814814835 35.55555555555556)"/><use xlink:href="#x" transform="matrix(1,0,0,1,373.34360454184616,750.3007493761635) translate(59.63462962962964 35.55555555555556)"/></g><defs><path d="M140-251c81 0 123 46 123 126C263-46 219 4 140 4 59 4 17-45 17-125s42-126 123-126zm0 227c63 0 89-41 89-101s-29-99-89-99c-61 0-89 39-89 99S79-25 140-24" id="y"/><path d="M160-131c35 5 61 23 61 61C221 17 115-2 30 0v-248c76 3 177-17 177 60 0 33-19 50-47 57zm-97-11c50-1 110 9 110-42 0-47-63-36-110-37v79zm0 115c55-2 124 14 124-45 0-56-70-42-124-44v89" id="z"/><path d="M30-248c118-7 216 8 213 122C240-48 200 0 122 0H30v-248zM63-27c89 8 146-16 146-99s-60-101-146-95v194" id="A"/><path d="M16-82v-28h88v28H16" id="B"/><path d="M101-251c82-7 93 87 43 132L82-64C71-53 59-42 53-27h129V0H18c2-99 128-94 128-182 0-28-16-43-45-43s-46 15-49 41l-32-3c6-41 34-60 81-64" id="C"/><g id="a"><use transform="matrix(0.05,0,0,0.05,0,0)" xlink:href="#y"/><use transform="matrix(0.05,0,0,0.05,14,0)" xlink:href="#z"/><use transform="matrix(0.05,0,0,0.05,26,0)" xlink:href="#A"/><use transform="matrix(0.05,0,0,0.05,38.95,0)" xlink:href="#B"/><use transform="matrix(0.05,0,0,0.05,44.900000000000006,0)" xlink:href="#C"/></g><path d="M185-189c-5-48-123-54-124 2 14 75 158 14 163 119 3 78-121 87-175 55-17-10-28-26-33-46l33-7c5 56 141 63 141-1 0-78-155-14-162-118-5-82 145-84 179-34 5 7 8 16 11 25" id="D"/><path d="M59-47c-2 24 18 29 38 22v24C64 9 27 4 27-40v-127H5v-23h24l9-43h21v43h35v23H59v120" id="E"/><path d="M100-194c63 0 86 42 84 106H49c0 40 14 67 53 68 26 1 43-12 49-29l28 8c-11 28-37 45-77 45C44 4 14-33 15-96c1-61 26-98 85-98zm52 81c6-60-76-77-97-28-3 7-6 17-6 28h103" id="F"/><path d="M96-169c-40 0-48 33-48 73s9 75 48 75c24 0 41-14 43-38l32 2c-6 37-31 61-74 61-59 0-76-41-82-99-10-93 101-131 147-64 4 7 5 14 7 22l-32 3c-4-21-16-35-41-35" id="G"/><path d="M143 0L79-87 56-68V0H24v-261h32v163l83-92h37l-77 82L181 0h-38" id="H"/><path d="M114-163C36-179 61-72 57 0H25l-1-190h30c1 12-1 29 2 39 6-27 23-49 58-41v29" id="I"/><g id="b"><use transform="matrix(0.05,0,0,0.05,0,0)" xlink:href="#D"/><use transform="matrix(0.05,0,0,0.05,12,0)" xlink:href="#E"/><use transform="matrix(0.05,0,0,0.05,17,0)" xlink:href="#F"/><use transform="matrix(0.05,0,0,0.05,27,0)" xlink:href="#G"/><use transform="matrix(0.05,0,0,0.05,36,0)" xlink:href="#H"/><use transform="matrix(0.05,0,0,0.05,45,0)" xlink:href="#F"/><use transform="matrix(0.05,0,0,0.05,55,0)" xlink:href="#I"/></g><path fill="#333" d="M185-189c-5-48-123-54-124 2 14 75 158 14 163 119 3 78-121 87-175 55-17-10-28-26-33-46l33-7c5 56 141 63 141-1 0-78-155-14-162-118-5-82 145-84 179-34 5 7 8 16 11 25" id="J"/><path fill="#333" d="M115-194c55 1 70 41 70 98S169 2 115 4C84 4 66-9 55-30l1 105H24l-1-265h31l2 30c10-21 28-34 59-34zm-8 174c40 0 45-34 45-75s-6-73-45-74c-42 0-51 32-51 76 0 43 10 73 51 73" id="K"/><path fill="#333" d="M100-194c63 0 86 42 84 106H49c0 40 14 67 53 68 26 1 43-12 49-29l28 8c-11 28-37 45-77 45C44 4 14-33 15-96c1-61 26-98 85-98zm52 81c6-60-76-77-97-28-3 7-6 17-6 28h103" id="L"/><path fill="#333" d="M24-231v-30h32v30H24zM24 0v-190h32V0H24" id="M"/><path fill="#333" d="M96-169c-40 0-48 33-48 73s9 75 48 75c24 0 41-14 43-38l32 2c-6 37-31 61-74 61-59 0-76-41-82-99-10-93 101-131 147-64 4 7 5 14 7 22l-32 3c-4-21-16-35-41-35" id="N"/><path fill="#333" d="M106-169C34-169 62-67 57 0H25v-261h32l-1 103c12-21 28-36 61-36 89 0 53 116 60 194h-32v-121c2-32-8-49-39-48" id="O"/><path fill="#333" d="M114-163C36-179 61-72 57 0H25l-1-190h30c1 12-1 29 2 39 6-27 23-49 58-41v29" id="P"/><path fill="#333" d="M84 4C-5 8 30-112 23-190h32v120c0 31 7 50 39 49 72-2 45-101 50-169h31l1 190h-30c-1-10 1-25-2-33-11 22-28 36-60 37" id="Q"/><path fill="#333" d="M117-194c89-4 53 116 60 194h-32v-121c0-31-8-49-39-48C34-167 62-67 57 0H25l-1-190h30c1 10-1 24 2 32 11-22 29-35 61-36" id="R"/><path fill="#333" d="M177-190C167-65 218 103 67 71c-23-6-38-20-44-43l32-5c15 47 100 32 89-28v-30C133-14 115 1 83 1 29 1 15-40 15-95c0-56 16-97 71-98 29-1 48 16 59 35 1-10 0-23 2-32h30zM94-22c36 0 50-32 50-73 0-42-14-75-50-75-39 0-46 34-46 75s6 73 46 73" id="S"/><g id="c"><use transform="matrix(0.04938271604938333,0,0,0.04938271604938333,0,0)" xlink:href="#J"/><use transform="matrix(0.04938271604938333,0,0,0.04938271604938333,11.851851851851999,0)" xlink:href="#K"/><use transform="matrix(0.04938271604938333,0,0,0.04938271604938333,21.728395061728666,0)" xlink:href="#L"/><use transform="matrix(0.04938271604938333,0,0,0.04938271604938333,31.60493827160533,0)" xlink:href="#M"/><use transform="matrix(0.04938271604938333,0,0,0.04938271604938333,35.50617283950662,0)" xlink:href="#N"/><use transform="matrix(0.04938271604938333,0,0,0.04938271604938333,44.39506172839562,0)" xlink:href="#O"/><use transform="matrix(0.04938271604938333,0,0,0.04938271604938333,54.27160493827228,0)" xlink:href="#L"/><use transform="matrix(0.04938271604938333,0,0,0.04938271604938333,64.14814814814895,0)" xlink:href="#P"/><use transform="matrix(0.04938271604938333,0,0,0.04938271604938333,70.02469135802556,0)" xlink:href="#Q"/><use transform="matrix(0.04938271604938333,0,0,0.04938271604938333,79.90123456790224,0)" xlink:href="#R"/><use transform="matrix(0.04938271604938333,0,0,0.04938271604938333,89.77777777777891,0)" xlink:href="#S"/></g><path fill="#333" d="M85-194c31 0 48 13 60 33l-1-100h32l1 261h-30c-2-10 0-23-3-31C134-8 116 4 85 4 32 4 16-35 15-94c0-66 23-100 70-100zm9 24c-40 0-46 34-46 75 0 40 6 74 45 74 42 0 51-32 51-76 0-42-9-74-50-73" id="T"/><g id="d"><use transform="matrix(0.04938271604938333,0,0,0.04938271604938333,0,0)" xlink:href="#Q"/><use transform="matrix(0.04938271604938333,0,0,0.04938271604938333,9.876543209876667,0)" xlink:href="#R"/><use transform="matrix(0.04938271604938333,0,0,0.04938271604938333,19.753086419753334,0)" xlink:href="#T"/></g><path fill="#333" d="M160-131c35 5 61 23 61 61C221 17 115-2 30 0v-248c76 3 177-17 177 60 0 33-19 50-47 57zm-97-11c50-1 110 9 110-42 0-47-63-36-110-37v79zm0 115c55-2 124 14 124-45 0-56-70-42-124-44v89" id="U"/><path fill="#333" d="M59-47c-2 24 18 29 38 22v24C64 9 27 4 27-40v-127H5v-23h24l9-43h21v43h35v23H59v120" id="V"/><path fill="#333" d="M135-143c-3-34-86-38-87 0 15 53 115 12 119 90S17 21 10-45l28-5c4 36 97 45 98 0-10-56-113-15-118-90-4-57 82-63 122-42 12 7 21 19 24 35" id="W"/><path fill="#333" d="M24 0v-261h32V0H24" id="X"/><g id="e"><use transform="matrix(0.04938271604938333,0,0,0.04938271604938333,0,0)" xlink:href="#U"/><use transform="matrix(0.04938271604938333,0,0,0.04938271604938333,11.851851851851999,0)" xlink:href="#L"/><use transform="matrix(0.04938271604938333,0,0,0.04938271604938333,21.728395061728666,0)" xlink:href="#P"/><use transform="matrix(0.04938271604938333,0,0,0.04938271604938333,27.60493827160528,0)" xlink:href="#L"/><use transform="matrix(0.04938271604938333,0,0,0.04938271604938333,37.48148148148195,0)" xlink:href="#M"/><use transform="matrix(0.04938271604938333,0,0,0.04938271604938333,41.382716049383234,0)" xlink:href="#V"/><use transform="matrix(0.04938271604938333,0,0,0.04938271604938333,46.32098765432157,0)" xlink:href="#W"/><use transform="matrix(0.04938271604938333,0,0,0.04938271604938333,55.20987654321056,0)" xlink:href="#V"/><use transform="matrix(0.04938271604938333,0,0,0.04938271604938333,60.148148148148906,0)" xlink:href="#L"/><use transform="matrix(0.04938271604938333,0,0,0.04938271604938333,70.02469135802558,0)" xlink:href="#X"/><use transform="matrix(0.04938271604938333,0,0,0.04938271604938333,73.92592592592686,0)" xlink:href="#X"/><use transform="matrix(0.04938271604938333,0,0,0.04938271604938333,77.82716049382815,0)" xlink:href="#Q"/><use transform="matrix(0.04938271604938333,0,0,0.04938271604938333,87.70370370370482,0)" xlink:href="#R"/><use transform="matrix(0.04938271604938333,0,0,0.04938271604938333,97.58024691358149,0)" xlink:href="#S"/></g><g id="f"><use transform="matrix(0.04938271604938333,0,0,0.04938271604938333,0,0)" xlink:href="#T"/><use transform="matrix(0.04938271604938333,0,0,0.04938271604938333,9.876543209876667,0)" xlink:href="#L"/><use transform="matrix(0.04938271604938333,0,0,0.04938271604938333,19.753086419753334,0)" xlink:href="#P"/></g><path fill="#333" d="M30-248c118-7 216 8 213 122C240-48 200 0 122 0H30v-248zM63-27c89 8 146-16 146-99s-60-101-146-95v194" id="Y"/><path fill="#333" d="M141-36C126-15 110 5 73 4 37 3 15-17 15-53c-1-64 63-63 125-63 3-35-9-54-41-54-24 1-41 7-42 31l-33-3c5-37 33-52 76-52 45 0 72 20 72 64v82c-1 20 7 32 28 27v20c-31 9-61-2-59-35zM48-53c0 20 12 33 32 33 41-3 63-29 60-74-43 2-92-5-92 41" id="Z"/><g id="g"><use transform="matrix(0.04938271604938333,0,0,0.04938271604938333,0,0)" xlink:href="#Y"/><use transform="matrix(0.04938271604938333,0,0,0.04938271604938333,12.790123456790283,0)" xlink:href="#Z"/><use transform="matrix(0.04938271604938333,0,0,0.04938271604938333,22.66666666666695,0)" xlink:href="#V"/><use transform="matrix(0.04938271604938333,0,0,0.04938271604938333,27.60493827160528,0)" xlink:href="#L"/><use transform="matrix(0.04938271604938333,0,0,0.04938271604938333,37.48148148148195,0)" xlink:href="#R"/></g><path fill="#333" d="M150-269v-32h29v32h-29zm-69 0v-32h29v32H81zM232-93c-1 65-40 97-104 97C67 4 28-28 28-90v-158h33c8 89-33 224 67 224 102 0 64-133 71-224h33v155" id="aa"/><path fill="#333" d="M115-194c53 0 69 39 70 98 0 66-23 100-70 100C84 3 66-7 56-30L54 0H23l1-261h32v101c10-23 28-34 59-34zm-8 174c40 0 45-34 45-75 0-40-5-75-45-74-42 0-51 32-51 76 0 43 10 73 51 73" id="ab"/><g id="h"><use transform="matrix(0.04938271604938333,0,0,0.04938271604938333,0,0)" xlink:href="#aa"/><use transform="matrix(0.04938271604938333,0,0,0.04938271604938333,12.790123456790283,0)" xlink:href="#ab"/><use transform="matrix(0.04938271604938333,0,0,0.04938271604938333,22.66666666666695,0)" xlink:href="#L"/><use transform="matrix(0.04938271604938333,0,0,0.04938271604938333,32.543209876543614,0)" xlink:href="#P"/><use transform="matrix(0.04938271604938333,0,0,0.04938271604938333,38.41975308642023,0)" xlink:href="#V"/><use transform="matrix(0.04938271604938333,0,0,0.04938271604938333,43.358024691358565,0)" xlink:href="#P"/><use transform="matrix(0.04938271604938333,0,0,0.04938271604938333,49.23456790123518,0)" xlink:href="#Z"/><use transform="matrix(0.04938271604938333,0,0,0.04938271604938333,59.111111111111846,0)" xlink:href="#S"/><use transform="matrix(0.04938271604938333,0,0,0.04938271604938333,68.98765432098851,0)" xlink:href="#Q"/><use transform="matrix(0.04938271604938333,0,0,0.04938271604938333,78.86419753086518,0)" xlink:href="#R"/><use transform="matrix(0.04938271604938333,0,0,0.04938271604938333,88.74074074074186,0)" xlink:href="#S"/></g><path fill="#333" d="M108 0H70L1-190h34L89-25l56-165h34" id="ac"/><path fill="#333" d="M100-194c62-1 85 37 85 99 1 63-27 99-86 99S16-35 15-95c0-66 28-99 85-99zM99-20c44 1 53-31 53-75 0-43-8-75-51-75s-53 32-53 75 10 74 51 75" id="ad"/><g id="i"><use transform="matrix(0.04938271604938333,0,0,0.04938271604938333,0,0)" xlink:href="#ac"/><use transform="matrix(0.04938271604938333,0,0,0.04938271604938333,8.888888888889,0)" xlink:href="#ad"/><use transform="matrix(0.04938271604938333,0,0,0.04938271604938333,18.765432098765665,0)" xlink:href="#R"/></g><g id="j"><use transform="matrix(0.04938271604938333,0,0,0.04938271604938333,0,0)" xlink:href="#Y"/><use transform="matrix(0.04938271604938333,0,0,0.04938271604938333,12.790123456790283,0)" xlink:href="#Z"/><use transform="matrix(0.04938271604938333,0,0,0.04938271604938333,22.66666666666695,0)" xlink:href="#V"/><use transform="matrix(0.04938271604938333,0,0,0.04938271604938333,27.60493827160528,0)" xlink:href="#L"/><use transform="matrix(0.04938271604938333,0,0,0.04938271604938333,37.48148148148195,0)" xlink:href="#R"/></g><path fill="#333" d="M210-169c-67 3-38 105-44 169h-31v-121c0-29-5-50-35-48C34-165 62-65 56 0H25l-1-190h30c1 10-1 24 2 32 10-44 99-50 107 0 11-21 27-35 58-36 85-2 47 119 55 194h-31v-121c0-29-5-49-35-48" id="ae"/><g id="k"><use transform="matrix(0.04938271604938333,0,0,0.04938271604938333,0,0)" xlink:href="#ae"/><use transform="matrix(0.04938271604938333,0,0,0.04938271604938333,14.765432098765617,0)" xlink:href="#M"/><use transform="matrix(0.04938271604938333,0,0,0.04938271604938333,18.6666666666669,0)" xlink:href="#V"/><use transform="matrix(0.04938271604938333,0,0,0.04938271604938333,23.60493827160523,0)" xlink:href="#V"/><use transform="matrix(0.04938271604938333,0,0,0.04938271604938333,28.543209876543564,0)" xlink:href="#L"/><use transform="matrix(0.04938271604938333,0,0,0.04938271604938333,38.41975308642023,0)" xlink:href="#X"/><use transform="matrix(0.04938271604938333,0,0,0.04938271604938333,42.32098765432151,0)" xlink:href="#W"/></g><path fill="#333" d="M30-248c87 1 191-15 191 75 0 78-77 80-158 76V0H30v-248zm33 125c57 0 124 11 124-50 0-59-68-47-124-48v98" id="af"/><path fill="#333" d="M232-93c-1 65-40 97-104 97C67 4 28-28 28-90v-158h33c8 89-33 224 67 224 102 0 64-133 71-224h33v155" id="ag"/><path fill="#333" d="M127-220V0H93v-220H8v-28h204v28h-85" id="ah"/><g id="l"><use transform="matrix(0.04938271604938333,0,0,0.04938271604938333,0,0)" xlink:href="#af"/><use transform="matrix(0.04938271604938333,0,0,0.04938271604938333,11.851851851851999,0)" xlink:href="#ag"/><use transform="matrix(0.04938271604938333,0,0,0.04938271604938333,24.64197530864228,0)" xlink:href="#ah"/></g><path fill="#333" d="M234-2c-28 10-62 0-77-18C117 19 8 12 13-65c3-43 29-61 60-76-25-40-17-114 47-108 35 3 59 15 59 50 0 44-40 53-71 69 14 26 32 50 51 72 14-21 24-43 30-72l26 8c-9 33-21 57-38 82 13 13 33 22 57 15v23zM97-151c25-10 52-18 56-48-1-18-13-29-33-29-42 0-39 50-23 77zM42-66c-3 51 71 58 98 28-20-24-41-51-56-80-23 10-40 24-42 52" id="ai"/><use transform="matrix(0.04938271604938333,0,0,0.04938271604938333,0,0)" xlink:href="#ai" id="m"/><g id="n"><use transform="matrix(0.04938271604938333,0,0,0.04938271604938333,0,0)" xlink:href="#af"/><use transform="matrix(0.04938271604938333,0,0,0.04938271604938333,11.851851851851999,0)" xlink:href="#ad"/><use transform="matrix(0.04938271604938333,0,0,0.04938271604938333,21.728395061728666,0)" xlink:href="#W"/><use transform="matrix(0.04938271604938333,0,0,0.04938271604938333,30.617283950617665,0)" xlink:href="#V"/></g><path fill="#333" d="M143 4C61 4 22-44 18-125c-5-107 100-154 193-111 17 8 29 25 37 43l-32 9c-13-25-37-40-76-40-61 0-88 39-88 99 0 61 29 100 91 101 35 0 62-11 79-27v-45h-74v-28h105v86C228-13 192 4 143 4" id="aj"/><g id="o"><use transform="matrix(0.04938271604938333,0,0,0.04938271604938333,0,0)" xlink:href="#aj"/><use transform="matrix(0.04938271604938333,0,0,0.04938271604938333,13.827160493827332,0)" xlink:href="#L"/><use transform="matrix(0.04938271604938333,0,0,0.04938271604938333,23.703703703704,0)" xlink:href="#R"/><use transform="matrix(0.04938271604938333,0,0,0.04938271604938333,33.580246913580666,0)" xlink:href="#L"/><use transform="matrix(0.04938271604938333,0,0,0.04938271604938333,43.45679012345733,0)" xlink:href="#P"/><use transform="matrix(0.04938271604938333,0,0,0.04938271604938333,49.33333333333395,0)" xlink:href="#M"/><use transform="matrix(0.04938271604938333,0,0,0.04938271604938333,53.23456790123523,0)" xlink:href="#L"/><use transform="matrix(0.04938271604938333,0,0,0.04938271604938333,63.111111111111896,0)" xlink:href="#P"/><use transform="matrix(0.04938271604938333,0,0,0.04938271604938333,68.98765432098851,0)" xlink:href="#Q"/><use transform="matrix(0.04938271604938333,0,0,0.04938271604938333,78.86419753086518,0)" xlink:href="#R"/><use transform="matrix(0.04938271604938333,0,0,0.04938271604938333,88.74074074074186,0)" xlink:href="#S"/></g><path fill="#333" d="M205 0l-28-72H64L36 0H1l101-248h38L239 0h-34zm-38-99l-47-123c-12 45-31 82-46 123h93" id="ak"/><path fill="#333" d="M101-234c-31-9-42 10-38 44h38v23H63V0H32v-167H5v-23h27c-7-52 17-82 69-68v24" id="al"/><g id="p"><use transform="matrix(0.04938271604938333,0,0,0.04938271604938333,0,0)" xlink:href="#ak"/><use transform="matrix(0.04938271604938333,0,0,0.04938271604938333,11.851851851851999,0)" xlink:href="#R"/><use transform="matrix(0.04938271604938333,0,0,0.04938271604938333,21.728395061728666,0)" xlink:href="#al"/><use transform="matrix(0.04938271604938333,0,0,0.04938271604938333,26.666666666667,0)" xlink:href="#ad"/><use transform="matrix(0.04938271604938333,0,0,0.04938271604938333,36.54320987654366,0)" xlink:href="#P"/><use transform="matrix(0.04938271604938333,0,0,0.04938271604938333,42.41975308642028,0)" xlink:href="#T"/><use transform="matrix(0.04938271604938333,0,0,0.04938271604938333,52.296296296296944,0)" xlink:href="#L"/><use transform="matrix(0.04938271604938333,0,0,0.04938271604938333,62.17283950617362,0)" xlink:href="#P"/><use transform="matrix(0.04938271604938333,0,0,0.04938271604938333,68.04938271605023,0)" xlink:href="#Q"/><use transform="matrix(0.04938271604938333,0,0,0.04938271604938333,77.9259259259269,0)" xlink:href="#R"/><use transform="matrix(0.04938271604938333,0,0,0.04938271604938333,87.80246913580358,0)" xlink:href="#S"/></g><g id="q"><use transform="matrix(0.04938271604938333,0,0,0.04938271604938333,0,0)" xlink:href="#ae"/><use transform="matrix(0.04938271604938333,0,0,0.04938271604938333,14.765432098765617,0)" xlink:href="#M"/><use transform="matrix(0.04938271604938333,0,0,0.04938271604938333,18.6666666666669,0)" xlink:href="#V"/><use transform="matrix(0.04938271604938333,0,0,0.04938271604938333,23.60493827160523,0)" xlink:href="#V"/><use transform="matrix(0.04938271604938333,0,0,0.04938271604938333,28.543209876543564,0)" xlink:href="#L"/><use transform="matrix(0.04938271604938333,0,0,0.04938271604938333,38.41975308642023,0)" xlink:href="#X"/><use transform="matrix(0.04938271604938333,0,0,0.04938271604938333,42.32098765432151,0)" xlink:href="#W"/></g><g id="r"><use transform="matrix(0.04938271604938333,0,0,0.04938271604938333,0,0)" xlink:href="#aj"/><use transform="matrix(0.04938271604938333,0,0,0.04938271604938333,13.827160493827332,0)" xlink:href="#L"/><use transform="matrix(0.04938271604938333,0,0,0.04938271604938333,23.703703703704,0)" xlink:href="#V"/></g><path fill="#333" d="M240 0l2-218c-23 76-54 145-80 218h-23L58-218 59 0H30v-248h44l77 211c21-75 51-140 76-211h43V0h-30" id="am"/><g id="t"><use transform="matrix(0.04938271604938333,0,0,0.04938271604938333,0,0)" xlink:href="#am"/><use transform="matrix(0.04938271604938333,0,0,0.04938271604938333,14.765432098765617,0)" xlink:href="#Z"/><use transform="matrix(0.04938271604938333,0,0,0.04938271604938333,24.641975308642284,0)" xlink:href="#R"/><use transform="matrix(0.04938271604938333,0,0,0.04938271604938333,34.51851851851895,0)" xlink:href="#M"/><use transform="matrix(0.04938271604938333,0,0,0.04938271604938333,38.419753086420236,0)" xlink:href="#K"/><use transform="matrix(0.04938271604938333,0,0,0.04938271604938333,48.2962962962969,0)" xlink:href="#Q"/><use transform="matrix(0.04938271604938333,0,0,0.04938271604938333,58.17283950617357,0)" xlink:href="#X"/><use transform="matrix(0.04938271604938333,0,0,0.04938271604938333,62.074074074074844,0)" xlink:href="#Z"/><use transform="matrix(0.04938271604938333,0,0,0.04938271604938333,71.95061728395152,0)" xlink:href="#V"/><use transform="matrix(0.04938271604938333,0,0,0.04938271604938333,76.88888888888985,0)" xlink:href="#M"/><use transform="matrix(0.04938271604938333,0,0,0.04938271604938333,80.79012345679114,0)" xlink:href="#ad"/><use transform="matrix(0.04938271604938333,0,0,0.04938271604938333,90.66666666666781,0)" xlink:href="#R"/></g><g id="u"><use transform="matrix(0.04938271604938333,0,0,0.04938271604938333,0,0)" xlink:href="#Y"/><use transform="matrix(0.04938271604938333,0,0,0.04938271604938333,12.790123456790283,0)" xlink:href="#L"/><use transform="matrix(0.04938271604938333,0,0,0.04938271604938333,22.66666666666695,0)" xlink:href="#X"/><use transform="matrix(0.04938271604938333,0,0,0.04938271604938333,26.567901234568232,0)" xlink:href="#L"/><use transform="matrix(0.04938271604938333,0,0,0.04938271604938333,36.4444444444449,0)" xlink:href="#V"/><use transform="matrix(0.04938271604938333,0,0,0.04938271604938333,41.382716049383234,0)" xlink:href="#L"/></g><path fill="#333" d="M179-190L93 31C79 59 56 82 12 73V49c39 6 53-20 64-50L1-190h34L92-34l54-156h33" id="an"/><path fill="#333" d="M141-36C126-15 110 5 73 4 37 3 15-17 15-53c-1-64 63-63 125-63 3-35-9-54-41-54-24 1-41 7-42 31l-33-3c5-37 33-52 76-52 45 0 72 20 72 64v82c-1 20 7 32 28 27v20c-31 9-61-2-59-35zM48-53c0 20 12 33 32 33 41-3 63-29 60-74-43 2-92-5-92 41zm70-161v-33h29v33h-29zm-69 0v-33h29v33H49" id="ao"/><g id="v"><use transform="matrix(0.04938271604938272,0,0,0.04938271604938272,0,0)" xlink:href="#J"/><use transform="matrix(0.04938271604938272,0,0,0.04938271604938272,11.851851851851853,0)" xlink:href="#an"/><use transform="matrix(0.04938271604938272,0,0,0.04938271604938272,20.74074074074074,0)" xlink:href="#R"/><use transform="matrix(0.04938271604938272,0,0,0.04938271604938272,30.617283950617285,0)" xlink:href="#N"/><use transform="matrix(0.04938271604938272,0,0,0.04938271604938272,39.50617283950618,0)" xlink:href="#O"/><use transform="matrix(0.04938271604938272,0,0,0.04938271604938272,49.38271604938272,0)" xlink:href="#P"/><use transform="matrix(0.04938271604938272,0,0,0.04938271604938272,55.25925925925927,0)" xlink:href="#ad"/><use transform="matrix(0.04938271604938272,0,0,0.04938271604938272,65.13580246913581,0)" xlink:href="#R"/><use transform="matrix(0.04938271604938272,0,0,0.04938271604938272,75.01234567901236,0)" xlink:href="#M"/><use transform="matrix(0.04938271604938272,0,0,0.04938271604938272,78.9135802469136,0)" xlink:href="#V"/><use transform="matrix(0.04938271604938272,0,0,0.04938271604938272,83.85185185185188,0)" xlink:href="#ao"/><use transform="matrix(0.04938271604938272,0,0,0.04938271604938272,93.72839506172842,0)" xlink:href="#V"/></g><g id="w"><use transform="matrix(0.04938271604938272,0,0,0.04938271604938272,0,0)" xlink:href="#ae"/><use transform="matrix(0.04938271604938272,0,0,0.04938271604938272,14.765432098765434,0)" xlink:href="#M"/><use transform="matrix(0.04938271604938272,0,0,0.04938271604938272,18.666666666666668,0)" xlink:href="#V"/><use transform="matrix(0.04938271604938272,0,0,0.04938271604938272,23.60493827160494,0)" xlink:href="#V"/><use transform="matrix(0.04938271604938272,0,0,0.04938271604938272,28.543209876543212,0)" xlink:href="#L"/><use transform="matrix(0.04938271604938272,0,0,0.04938271604938272,38.41975308641976,0)" xlink:href="#X"/><use transform="matrix(0.04938271604938272,0,0,0.04938271604938272,42.320987654320994,0)" xlink:href="#W"/></g><path fill="#333" d="M30 0v-248h187v28H63v79h144v27H63v87h162V0H30" id="ap"/><g id="x"><use transform="matrix(0.04938271604938272,0,0,0.04938271604938272,0,0)" xlink:href="#J"/><use transform="matrix(0.04938271604938272,0,0,0.04938271604938272,11.851851851851853,0)" xlink:href="#J"/><use transform="matrix(0.04938271604938272,0,0,0.04938271604938272,23.703703703703706,0)" xlink:href="#ap"/></g></defs></g></svg>